<?xml version="1.0" encoding="UTF-8" standalone="no"?>
<!-- Created with Inkscape (http://www.inkscape.org/) -->

<svg
   width="233.59856mm"
   height="233.93323mm"
   viewBox="0 0 233.59856 233.93323"
   version="1.1"
   id="svg1"
   xml:space="preserve"
   xmlns:inkscape="http://www.inkscape.org/namespaces/inkscape"
   xmlns:sodipodi="http://sodipodi.sourceforge.net/DTD/sodipodi-0.dtd"
   xmlns="http://www.w3.org/2000/svg"
   xmlns:svg="http://www.w3.org/2000/svg"><sodipodi:namedview
     id="namedview1"
     pagecolor="#ffffff"
     bordercolor="#000000"
     borderopacity="0.25"
     inkscape:showpageshadow="2"
     inkscape:pageopacity="0.0"
     inkscape:pagecheckerboard="0"
     inkscape:deskcolor="#d1d1d1"
     inkscape:document-units="mm"><inkscape:page
       x="0"
       y="-4.0663141e-21"
       width="233.59856"
       height="233.93324"
       id="page2"
       margin="0"
       bleed="0" /></sodipodi:namedview><defs
     id="defs1" /><g
     inkscape:label="Layer 1"
     inkscape:groupmode="layer"
     id="layer1"
     transform="translate(-40.20707,-11.282116)"><path
       style="fill:#ffffff;fill-opacity:1"
       d="m 155.17211,245.04328 c -5.12776,-0.30349 -11.56074,-1.15974 -17.19792,-2.28909 C 110.84234,237.31861 85.986544,221.81131 66.753631,198.32032 51.599367,179.81097 42.436998,157.22354 40.48961,133.57321 39.886702,126.2511 40.275519,115.21717 41.400259,107.73067 43.828436,91.568238 50.92792,74.084815 60.688066,60.231888 71.625704,44.707704 86.61888,31.758074 103.44607,23.301732 c 16.88942,-8.487617 37.20067,-12.842285 55.46159,-11.890794 4.52498,0.235775 11.45088,0.956998 11.72053,1.220507 0.0606,0.05925 -0.69096,0.107734 -1.67021,0.107734 -2.54486,0 -9.01496,0.485165 -12.72753,0.954382 -11.17793,1.412736 -24.17105,5.263611 -34.66042,10.272587 -11.81409,5.641568 -21.955962,12.958137 -32.286453,23.292154 -19.88339,19.89018 -32.588956,43.867233 -34.958386,65.971018 -0.322195,3.00567 -0.375639,5.20893 -0.235501,9.70882 0.0997,3.20146 0.276014,6.41615 0.391808,7.14375 l 0.210534,1.32292 0.03535,-1.53279 c 0.05749,-2.49285 0.813858,-8.78609 1.517047,-12.62242 2.973961,-16.22482 11.219677,-33.312807 22.215145,-46.037503 2.295383,-2.656372 7.11448,-7.486135 9.772951,-9.79458 1.462708,-1.270122 7.946873,-6.207171 8.863543,-6.748711 0.218281,-0.128953 -0.701515,0.950924 -2.043992,2.399727 -8.569364,9.248074 -16.316089,21.548006 -21.322521,33.855022 -7.233257,17.781085 -9.614946,34.997915 -7.443199,53.805635 2.24178,19.4142 9.829885,38.61805 21.289764,53.87978 13.39498,17.83882 32.52395,30.72216 53.43078,35.98559 3.00367,0.7562 8.89795,1.99227 9.37295,1.96558 0.16189,-0.009 -1.01534,-0.46656 -2.61607,-1.0166 -6.95975,-2.39147 -15.30707,-6.26513 -21.59964,-10.02352 -18.97952,-11.33598 -33.109483,-25.85416 -41.74067,-42.88747 -5.854827,-11.55428 -8.925783,-22.33744 -9.653741,-33.89754 l -0.141621,-2.24895 0.78444,3.15053 c 4.431085,17.79652 13.647193,33.98638 26.193282,46.01353 5.8808,5.63755 12.45024,10.44632 19.64577,14.38052 2.64094,1.44396 7.3279,3.62179 7.46999,3.471 0.0394,-0.0418 -0.40687,-0.84991 -0.99166,-1.79579 -0.5848,-0.94589 -1.6308,-2.91042 -2.32445,-4.36563 -6.21943,-13.04773 -5.0238,-26.14094 3.34279,-36.60681 1.66994,-2.08894 4.60727,-4.62661 6.72568,-5.81057 1.52396,-0.85172 2.8101,-2.9406 3.32313,-5.39724 0.52722,-2.52459 0.88432,-11.28694 0.89109,-21.86517 l 0.006,-9.09022 -1.29947,-1.22853 c -2.10924,-1.9941 -2.34977,-4.06098 -0.76365,-6.56203 0.74297,-1.17155 0.77992,-1.3536 0.60541,-2.98314 -0.15538,-1.45087 -0.32867,-1.89353 -1.05675,-2.69944 -0.479,-0.53019 -0.95065,-1.21526 -1.04813,-1.52239 -0.17445,-0.54964 -0.28732,-0.55842 -7.18158,-0.55842 -6.79841,0 -7.02745,0.0171 -7.79046,0.58121 -0.9974,0.73741 -0.87556,0.78001 -8.90869,-3.11503 -4.77368,-2.31463 -6.21177,-3.12744 -6.39747,-3.61587 -0.13175,-0.34653 -0.54866,-2.27819 -0.92645,-4.29258 -0.68654,-3.660525 -0.68691,-3.670428 -0.68691,-18.150213 v -14.48769 l 0.807,-3.396891 0.807,-3.396891 7.10982,-3.638021 c 3.91041,-2.000911 7.18579,-3.638021 7.27864,-3.638021 0.0928,0 0.82973,0.625078 1.63752,1.389063 l 1.46873,1.389062 27.95033,0.01913 27.95034,0.01913 1.56932,-1.410793 c 1.11951,-1.006419 1.71106,-1.365808 2.06381,-1.253848 0.82583,0.262107 13.94323,7.012732 14.09086,7.251592 0.0757,0.122462 0.48062,1.751264 0.89985,3.619561 l 0.76225,3.396904 -0.0787,14.684375 c -0.0776,14.465776 -0.0889,14.739305 -0.75852,18.374251 -0.37388,2.02944 -0.83079,3.83295 -1.01535,4.00782 -0.51649,0.48934 -13.67718,6.72288 -14.17975,6.71621 -0.24383,-0.003 -0.74097,-0.23871 -1.10478,-0.52328 -0.61822,-0.48358 -1.11976,-0.51765 -7.67291,-0.52124 l -7.01146,-0.004 -0.59637,0.99015 c -0.32801,0.54458 -0.83365,1.28781 -1.12364,1.65161 -0.32979,0.41371 -0.58952,1.26423 -0.69347,2.27081 -0.1513,1.46519 -0.0999,1.70956 0.57403,2.72791 0.86339,1.30466 1.16787,3.53778 0.65213,4.78288 -0.17962,0.43364 -0.87816,1.29687 -1.55232,1.91828 l -1.22574,1.12985 -0.0945,10.18774 c -0.10211,11.00731 0.259,20.45186 0.86873,22.72079 0.62209,2.3149 1.57455,3.95367 4.24899,7.3107 4.05047,5.08423 5.7926,9.27087 6.20795,14.91871 0.1136,1.5446 0.1657,2.85465 0.1158,2.91121 -0.0499,0.0566 -0.22053,-0.24109 -0.37917,-0.66146 -0.65926,-1.74692 -2.76846,-4.67145 -4.6082,-6.38957 -3.38169,-3.15812 -6.789,-4.56118 -11.07672,-4.56118 -9.35212,0 -17.09128,7.67613 -18.45962,18.30931 -0.7728,6.00526 1.20477,13.05017 5.45472,19.43193 7.11708,10.68706 19.5539,17.96651 34.83522,20.38958 4.20834,0.66729 14.68822,0.66474 18.99906,-0.005 9.8878,-1.53532 20.02275,-5.19032 29.5343,-10.65104 1.43692,-0.82495 3.26742,-1.93966 4.06779,-2.47713 3.19427,-2.14502 2.74514,-1.62866 -1.5875,1.82513 -9.59821,7.65129 -20.56574,13.42002 -33.89579,17.82858 -12.82293,4.24085 -28.35163,6.26507 -41.90734,5.46277 z m -27.70819,-44.47747 c -0.1996,-0.85118 -0.3275,-3.08366 -0.31674,-5.52871 0.0241,-5.47088 0.81493,-8.83954 3.1827,-13.55691 2.68252,-5.34442 6.92393,-9.67981 11.94721,-12.21189 4.96059,-2.50049 12.09481,-3.43397 16.38247,-2.14358 0.62852,0.18916 1.14276,0.28832 1.14276,0.22036 0,-0.28305 -4.49794,-2.18001 -6.10232,-2.5736 -4.40052,-1.07954 -9.76024,-0.23445 -15.02714,2.36938 -2.66648,1.31825 -3.27829,1.75921 -5.42395,3.90928 -3.54198,3.54924 -5.78525,7.60026 -7.12929,12.87446 -0.48576,1.90617 -0.57005,2.95469 -0.55301,6.87917 0.0189,4.35348 0.0711,4.81922 0.87371,7.79293 0.46948,1.7395 0.91711,3.26547 0.99472,3.39104 0.32834,0.53127 0.34098,-0.091 0.0289,-1.42193 z m 15.76878,-38.37009 c 1.19818,-0.45851 1.51838,-0.7147 1.73613,-1.38906 0.81368,-2.51999 0.94287,-4.99556 0.94287,-18.06883 0,-7.30027 -0.0698,-13.34309 -0.15521,-13.42847 -0.0854,-0.0854 -0.71044,-0.0791 -1.38906,0.0139 l -1.23386,0.16912 -7.5e-4,4.5281 c -0.002,12.53867 -0.58127,23.32892 -1.50346,28.00987 -0.0788,0.40018 -0.0809,0.7276 -0.005,0.7276 0.0763,0 0.79989,-0.25299 1.60791,-0.56221 z m -0.0991,-39.17344 c 1.38245,-0.28862 4.00183,-0.61418 5.82084,-0.72347 3.39872,-0.20421 9.77262,0.0576 11.6453,0.4784 0.58008,0.13033 1.0547,0.18235 1.0547,0.11559 0,-0.22686 -3.96916,-1.95645 -5.62629,-2.4517 -3.53939,-1.05777 -4.37018,-1.15327 -8.23668,-0.94679 -2.0525,0.10961 -4.29737,0.21405 -4.9886,0.2321 -0.69122,0.018 -1.25677,0.14232 -1.25677,0.27618 0,0.13387 -0.34444,0.78959 -0.76542,1.45718 -0.42098,0.66758 -0.85144,1.49969 -0.95657,1.84912 -0.16445,0.54657 -0.1222,0.60759 0.3024,0.43675 0.27145,-0.10923 1.62465,-0.43474 3.00709,-0.72336 z m 29.76563,-15.33143 c -6.13691,-1.99403 -11.83372,-3.00965 -18.46935,-3.29271 -5.95338,-0.25395 -12.41087,0.5593 -21.41501,2.69698 -3.23087,0.76704 -4.08659,1.28742 -1.18837,0.72266 10.90293,-2.12456 21.31989,-2.42011 31.28314,-0.88757 1.89177,0.29099 4.66484,0.65117 6.16238,0.8004 1.49754,0.14924 3.16442,0.37557 3.70417,0.50296 2.19785,0.51874 2.14993,0.18085 -0.077,-0.54272 z m 17.92163,-6.2814 c 4.66961,-1.800311 5.24856,-2.090384 5.47634,-2.743788 0.20203,-0.579528 0.17516,-0.730648 -0.12989,-0.730648 -0.21153,0 -2.53524,0.478219 -5.1638,1.062708 -2.62856,0.58449 -4.89008,0.994182 -5.02559,0.910427 -0.14785,-0.09137 -0.2464,-6.698509 -0.2464,-16.518785 0,-12.855055 0.071,-16.391348 0.33073,-16.482301 0.3339,-0.11691 4.42412,1.216541 8.20208,2.673963 l 2.05052,0.791028 -0.004,-0.83675 c -0.002,-0.460212 -0.0972,-0.983341 -0.21098,-1.162509 -0.11381,-0.179168 -2.28488,-1.283756 -4.8246,-2.454639 -2.53971,-1.170884 -4.79625,-2.22479 -5.01454,-2.342013 -0.21828,-0.117224 -0.8911,-0.961125 -1.49515,-1.875338 -2.14203,-3.241871 -1.94565,-5.497769 -1.93433,22.220741 l 0.0101,24.729094 1.37896,-2.61403 1.37897,-2.61403 z M 120.11071,83.779805 c 0.008,-16.285048 -0.0777,-24.473958 -0.25531,-24.473958 -0.14676,0 -0.89257,0.942898 -1.65735,2.09533 l -1.39052,2.09533 -4.7625,2.177991 c -2.61938,1.197895 -4.91133,2.361347 -5.09323,2.585448 -0.1819,0.224101 -0.33073,0.814158 -0.33073,1.311236 0,0.755247 0.0761,0.873196 0.46302,0.717684 4.92835,-1.980789 9.22072,-3.407334 9.69954,-3.223591 0.37834,0.145179 0.42077,1.804275 0.42077,16.449947 0,12.934302 -0.0693,16.315069 -0.33644,16.417589 -0.18505,0.07101 -2.41747,-0.339224 -4.96094,-0.911628 -2.54347,-0.572404 -4.80309,-1.080723 -5.02137,-1.129597 -0.29003,-0.06494 -0.38228,0.115668 -0.34266,0.670908 0.0298,0.417874 0.0893,0.786096 0.1323,0.818271 0.0429,0.03218 2.4944,0.993345 5.44769,2.135945 l 5.36961,2.07744 1.11268,2.31295 c 0.61197,1.27213 1.19845,2.32054 1.3033,2.32981 0.10484,0.009 0.1958,-10.996427 0.20214,-24.457105 z M 184.0117,226.49416 c -19.65369,-2.06647 -36.00087,-14.97632 -36.81743,-29.07581 -0.3495,-6.03475 2.14559,-11.16275 6.78722,-13.94933 2.83991,-1.70494 6.90563,-1.84168 9.97091,-0.33537 2.70912,1.3313 5.07201,3.88192 6.2477,6.74407 0.11955,0.29105 -0.21151,0.0282 -0.73569,-0.5842 -1.21805,-1.42294 -3.90732,-2.77344 -5.84232,-2.9339 -1.17327,-0.0973 -1.69649,0.0103 -2.89108,0.5948 -4.68314,2.29125 -3.55702,8.63241 2.53683,14.2849 6.5127,6.041 16.97678,9.49366 28.81365,9.50716 10.68077,0.0122 20.89037,-2.62141 32.35838,-8.34692 18.92792,-9.44993 32.50147,-24.45237 41.21774,-45.5567 3.64426,-8.82369 6.67272,-20.82653 7.29394,-28.90838 0.0945,-1.22985 0.26057,-2.29089 0.36896,-2.35788 0.32729,-0.20228 0.60163,7.89938 0.43478,12.83966 -0.91188,26.99988 -14.84871,53.71491 -37.03735,70.99564 -12.31092,9.58786 -26.22625,15.57604 -39.74166,17.102 -2.77024,0.31278 -9.90542,0.30191 -12.96458,-0.0197 z m -2.38125,-21.38749 c -4.74309,-0.55377 -8.85643,-1.72322 -12.50149,-3.55427 -3.7654,-1.89149 -5.71655,-3.54983 -7.80415,-6.633 -1.03138,-1.52325 -0.90169,-1.6456 0.32904,-0.31042 4.59973,4.99012 15.38317,5.19875 26.85576,0.51959 20.57465,-8.39149 37.55794,-28.90249 44.54843,-53.80189 2.82587,-10.06547 4.03798,-20.76776 3.48974,-30.81269 -0.14262,-2.61318 -0.22304,-4.78751 -0.17871,-4.83184 0.1655,-0.1655 2.2741,8.90751 2.78056,11.96432 0.98796,5.96309 1.18758,8.46678 1.19186,14.94896 0.005,6.97578 -0.2695,10.39031 -1.31686,16.40417 -3.04403,17.47851 -10.44403,32.69618 -20.78803,42.74937 -7.04087,6.84294 -14.82706,11.00999 -23.95966,12.82287 -2.9484,0.58527 -9.75051,0.87294 -12.64649,0.53483 z m 44.6074,-13.51854 c 7.94134,-10.60264 13.59193,-22.3183 16.88908,-35.01697 3.32546,-12.8077 4.432,-26.90054 3.0441,-38.76945 -1.50009,-12.82828 -4.68704,-23.601155 -10.33869,-34.947946 -7.73312,-15.525749 -18.08617,-27.423356 -32.83679,-37.735682 -1.78263,-1.246257 -3.24115,-2.304425 -3.24115,-2.351483 0,-0.21537 6.32209,2.467568 9.6573,4.098318 8.57183,4.191199 17.01824,10.033823 23.84347,16.493202 1.36541,1.292223 2.48257,2.275226 2.48257,2.18445 0,-0.216605 -4.00072,-5.731297 -5.38829,-7.427348 -2.85585,-3.490765 -6.81371,-7.776893 -9.50191,-10.290019 -15.32597,-14.327822 -30.71497,-21.405047 -50.4332,-23.193653 -3.51787,-0.3191 -15.72355,-0.198413 -17.75577,0.175565 -0.50932,0.09373 -0.85483,0.09393 -0.7678,4.6e-4 0.26468,-0.284258 8.61635,-1.943839 12.27718,-2.439626 4.83676,-0.655046 15.89688,-0.666821 20.5052,-0.02183 4.30958,0.603177 10.69766,2.09033 14.63777,3.40769 13.55446,4.531879 27.42542,13.89583 37.78214,25.505823 11.09178,12.433994 18.33058,25.843548 22.83982,42.309758 3.8844,14.184471 4.77582,28.327371 2.67659,42.465621 -1.07286,7.22571 -2.31596,11.91918 -4.94419,18.6675 -6.42685,16.50177 -16.39901,28.43779 -31.05567,37.17162 l -1.05833,0.63066 z M 125.1419,55.073275 c 0,-0.598035 1.89556,-2.331234 2.71702,-2.484302 1.65547,-0.308475 10.43236,-1.19313 14.94828,-1.506693 8.524,-0.591863 20.98627,-0.09186 30.22429,1.21264 2.73246,0.38585 2.79443,0.410286 3.77031,1.486682 0.5457,0.601911 0.99219,1.198133 0.99219,1.324939 0,0.129474 -11.54205,0.230555 -26.32604,0.230555 -17.3236,0 -26.32605,-0.09022 -26.32605,-0.263821 z"
       id="path1"
       inkscape:export-filename="AxiTools-Black.svg"
       inkscape:export-xdpi="96"
       inkscape:export-ydpi="96" /></g></svg>
